<svg width="30" height="30" viewBox="0 0 30 30" fill="none" xmlns="http://www.w3.org/2000/svg">
<path fill-rule="evenodd" clip-rule="evenodd" d="M21.5039 15.1822L20.8389 19.5182H17.3437V30C24.5147 28.8747 30 22.6692 30 15.1822C30 6.89795 23.2843 0.182222 15 0.182222C6.71572 0.182222 0 6.89795 0 15.1822C0 22.6692 5.48528 28.8747 12.6562 30V19.5182H8.84766V15.1822H12.6562V11.8775C12.6562 11.6426 12.665 11.4142 12.6822 11.1925C12.9408 7.8667 15.1098 6.0416 18.322 6.0416C18.4245 6.0416 18.5274 6.04274 18.6301 6.04489C20.171 6.07708 21.6797 6.33457 21.6797 6.33457V10.026H19.7882C17.9248 10.026 17.3437 11.1822 17.3437 12.3685V15.1822H21.5039Z" fill="white"/>
</svg>
