<svg width="30" height="25" viewBox="0 0 30 25" fill="none" xmlns="http://www.w3.org/2000/svg">
<path d="M9.43464 24.3623C20.756 24.3623 26.9471 14.9904 26.9471 6.86341C26.9471 6.59721 26.9417 6.33222 26.9298 6.06843C28.1316 5.20031 29.1761 4.11696 30 2.88371C28.8972 3.37353 27.7104 3.70327 26.4654 3.85195C27.7361 3.09054 28.7117 1.88609 29.172 0.450248C27.9828 1.1547 26.6658 1.6667 25.2636 1.94313C24.1404 0.747698 22.5414 0 20.7708 0C17.3718 0 14.6154 2.7543 14.6154 6.14936C14.6154 6.63197 14.6694 7.10141 14.775 7.5517C9.65952 7.2945 5.12344 4.8472 2.08764 1.12592C1.55905 2.0348 1.25425 3.09057 1.25425 4.2171C1.25425 6.35084 2.34088 8.23452 3.99327 9.3365C2.98345 9.30532 2.03484 9.02833 1.20573 8.56729C1.20482 8.59309 1.20482 8.61825 1.20482 8.64583C1.20482 11.6243 3.32643 14.1112 6.14277 14.6747C5.62557 14.8156 5.08141 14.8911 4.51977 14.8911C4.12378 14.8911 3.73797 14.8522 3.36297 14.7802C4.14657 17.2239 6.4188 19.0021 9.11273 19.0518C7.00611 20.7017 4.35236 21.6844 1.46817 21.6844C0.971971 21.6844 0.481775 21.6562 0 21.5993C2.72402 23.3439 5.95855 24.3619 9.43497 24.3619" fill="white"/>
</svg>
